<svg width="500" height="500" viewBox="0 0 500 500" fill="none" xmlns="http://www.w3.org/2000/svg">
<path d="M286.713 316.483H136.932V375.092C136.932 380.209 139.723 383 145.305 383H254.152L319.274 326.716V292.294L286.713 316.483Z" fill="white"/>
<path d="M319.274 336.949L265.78 383H383C383 383 370.773 362.998 369.444 360.672C368.115 358.347 365.789 357.882 363.231 359.742C360.672 361.603 359.277 362.533 359.277 362.533C359.277 362.533 352.765 366.919 349.044 367.185C345.322 367.45 324.39 360.672 319.274 352.3V336.949Z" fill="white"/>
<path d="M335.089 116H171.386C168.978 116 166.664 116.934 164.93 118.605L118.847 163.028C117.028 164.781 116 167.199 116 169.726V298.807C116 303.945 120.165 308.11 125.303 308.11H281.357C283.326 308.11 285.244 307.485 286.836 306.325L340.568 267.172C342.971 265.421 344.392 262.626 344.392 259.653V125.303C344.392 120.165 340.227 116 335.089 116Z" fill="white"/>
</svg>
