<svg width="500" height="500" viewBox="0 0 500 500" fill="none" xmlns="http://www.w3.org/2000/svg">
<path d="M93.93 245.5C93.93 278.466 121.298 304.614 154.326 304.614V348C96.156 348 49 302.109 49 245.5C49 188.891 96.156 143 154.326 143H344.674C402.844 143 450 188.891 450 245.5C450 302.109 402.844 348 344.674 348V304.614C377.702 304.614 405.07 278.466 405.07 245.5C405.07 212.534 377.702 186.386 344.674 186.386H154.326C121.298 186.386 93.93 212.534 93.93 245.5Z" fill="white"/>
<path d="M161 313C161 307.477 165.477 303 171 303H328C333.523 303 338 307.477 338 313V328C338 344.569 324.569 358 308 358H191C174.431 358 161 344.569 161 328V313Z" fill="white"/>
</svg>
