<svg width="500" height="500" viewBox="0 0 500 500" fill="none" xmlns="http://www.w3.org/2000/svg">
<path fill-rule="evenodd" clip-rule="evenodd" d="M250.421 97.1558L249.602 97.1981C248.875 97.1603 248.223 97.1245 247.658 97.087C247.591 97.0826 247.535 97.1352 247.535 97.2018C247.535 97.2627 247.488 97.3129 247.427 97.3164C240.905 97.6923 231.707 98.4505 224.174 100.849C218.706 102.59 216.538 161.563 217.602 220.123C217.603 220.15 217.626 220.172 217.653 220.172C217.681 220.171 217.704 220.194 217.704 220.221L217.706 220.363C217.712 220.675 217.804 220.978 217.894 221.278C217.95 221.464 217.985 221.66 217.996 221.863C218.895 238.259 219.389 252.262 219.838 265.01C220.166 274.297 220.47 282.918 220.89 291.315C220.953 292.163 221.018 293.022 221.084 293.892C221.085 293.91 221.071 293.927 221.052 293.927C221.031 293.927 221.026 293.953 221.027 293.974L221.036 294.148C221.788 302.895 222.653 310.697 223.632 317.164C223.661 317.352 223.722 317.534 223.811 317.702C228.939 327.311 234.735 333.062 247.257 333.942C247.294 333.944 247.324 333.975 247.324 334.012C247.324 334.05 247.355 334.081 247.393 334.083C264.527 334.866 271.357 328.909 277.288 317.779C277.378 317.612 277.438 317.429 277.467 317.241C278.449 310.728 279.316 302.861 280.066 294.038C280.068 294.019 280.054 294.003 280.035 294.003C280.016 294.003 280.002 293.986 280.003 293.968C280.492 287.475 280.907 281.626 281.261 276.134C281.397 272.518 281.527 268.82 281.662 265.01L281.662 265.007C282.062 253.653 282.498 241.305 283.223 227.157C283.265 224.946 283.306 222.664 283.344 220.296C283.344 220.268 283.367 220.246 283.395 220.246C283.422 220.246 283.445 220.224 283.446 220.197C284.479 161.636 282.28 102.665 276.811 100.927C269.31 98.5426 260.158 97.7854 253.641 97.4112C253.532 97.405 253.448 97.315 253.448 97.206C253.448 97.0868 253.347 96.9927 253.228 97.0005C252.442 97.0518 251.496 97.1005 250.421 97.1558ZM250.492 128.5C244.54 128.48 238.524 129.441 230.638 131.523C229.303 131.875 227.935 131.079 227.583 129.744C227.23 128.409 228.027 127.041 229.362 126.688C237.488 124.543 243.966 123.478 250.509 123.5C257.045 123.523 263.515 124.632 271.614 126.682C272.952 127.021 273.762 128.38 273.424 129.719C273.085 131.057 271.725 131.868 270.386 131.529C262.475 129.526 256.45 128.521 250.492 128.5ZM231.999 218.42C231.955 217.04 230.8 215.957 229.42 216.001C228.04 216.045 226.957 217.2 227.001 218.58L230.017 313.064C230.051 314.143 230.936 315 232.016 315H247.5C248.881 315 250 313.881 250 312.5C250 311.119 248.881 310 247.5 310H236.859C235.779 310 234.894 309.143 234.86 308.064L231.999 218.42Z" fill="white"/>
<path d="M286.521 285.395C286.136 285 285.93 284.463 285.954 283.911C286.212 277.836 286.433 271.579 286.666 265.008C287.008 255.349 287.374 245.011 287.914 233.565C287.939 233.045 288.166 232.554 288.547 232.198L301.588 220.022C301.857 219.771 302.187 219.623 302.527 219.578C302.923 219.525 303.282 219.763 303.555 220.055L313.818 231.069C314.217 231.498 314.462 232.126 314.103 232.589C314.052 232.655 313.996 232.717 313.934 232.776L303.461 242.805C303.132 243.12 302.943 243.552 302.936 244.007L302.46 275.189C302.453 275.642 302.627 276.078 302.944 276.402L315.528 289.289C315.962 289.733 315.722 290.42 315.288 290.864L304.535 301.856C304.237 302.16 303.842 302.398 303.427 302.307C303.113 302.238 302.816 302.08 302.575 301.833L286.521 285.395Z" fill="white"/>
<path d="M308.871 304.573C308.839 304.607 308.838 304.66 308.872 304.692L373.377 365.906C373.387 365.915 373.402 365.914 373.411 365.905L382.542 356.571C382.619 356.492 382.625 356.367 382.545 356.291L318.328 295.352C318.196 295.226 317.99 295.251 317.863 295.382L308.871 304.573Z" fill="white"/>
<path d="M377.016 372.273C376.206 371.505 376.182 370.222 376.963 369.424L386.145 360.038C386.909 359.257 388.159 359.234 388.951 359.986L401.954 372.325C402.338 372.69 402.87 372.849 403.398 372.796C403.982 372.737 404.576 372.711 405.177 372.72C413.558 372.848 420.249 379.729 420.121 388.09C419.994 396.451 413.096 403.126 404.714 402.998C396.333 402.871 389.642 395.99 389.77 387.629C389.781 386.949 389.836 386.281 389.932 385.627C390.019 385.042 389.84 384.442 389.41 384.035L377.016 372.273Z" fill="white"/>
<path d="M316.387 226.492C316.49 226.602 316.661 226.621 316.769 226.514L383.339 160.633C383.37 160.602 383.37 160.552 383.34 160.52L374.743 151.294C374.534 151.069 374.189 151.003 373.971 151.22L309.081 215.814C308.316 216.575 308.293 217.806 309.029 218.595L316.387 226.492Z" fill="white"/>
<path d="M389.857 157.157C389.055 157.951 387.756 157.924 386.987 157.099L378.032 147.489C377.295 146.698 377.32 145.465 378.088 144.704L390.222 132.696C390.614 132.308 390.787 131.755 390.729 131.208C390.666 130.605 390.637 129.991 390.647 129.37C390.775 121.009 397.673 114.334 406.054 114.462C414.435 114.589 421.126 121.47 420.998 129.832C420.87 138.192 413.972 144.867 405.591 144.74C404.924 144.729 404.267 144.676 403.624 144.583C403.058 144.501 402.478 144.667 402.071 145.069L389.857 157.157Z" fill="white"/>
<path d="M199.46 219.958L212.969 232.557C213.351 232.913 213.578 233.405 213.603 233.926C214.134 245.227 214.496 255.45 214.834 265.006L214.834 265.008L214.834 265.009C215.061 271.407 215.277 277.507 215.526 283.432C215.549 283.983 215.344 284.52 214.959 284.914L198.516 301.769C198.428 301.86 198.331 301.939 198.229 302.006C197.749 302.32 197.152 302.047 196.751 301.637L185.67 290.31C185.374 290.007 185.26 289.535 185.556 289.231L198.134 276.338C198.45 276.014 198.624 275.578 198.617 275.125L198.124 243.943C198.117 243.489 197.928 243.056 197.599 242.742L187.121 232.718C186.795 232.406 186.908 231.9 187.216 231.57L197.786 220.227C198.209 219.773 198.871 219.483 199.357 219.869C199.392 219.897 199.426 219.926 199.46 219.958Z" fill="white"/>
<path d="M192.221 304.632C192.361 304.498 192.341 304.279 192.206 304.141L183.644 295.389C183.401 295.14 183.012 295.056 182.76 295.296L120.092 354.828C119.283 355.597 119.259 356.879 120.04 357.677L126.533 364.315C127.298 365.096 128.548 365.119 129.34 364.366L192.221 304.632Z" fill="white"/>
<path d="M99.1744 372.313L112.356 359.791C113.149 359.038 114.399 359.061 115.164 359.842L125.651 370.563C125.712 370.625 125.715 370.725 125.652 370.785L111.724 384.016C111.295 384.424 111.116 385.024 111.203 385.609C111.3 386.263 111.356 386.931 111.366 387.61C111.499 395.971 104.811 402.856 96.4302 402.988C88.049 403.12 81.1475 396.449 81.0153 388.088C80.8831 379.727 87.5702 372.842 95.9515 372.71C96.5527 372.701 97.1463 372.726 97.7304 372.785C98.2582 372.838 98.7902 372.678 99.1744 372.313Z" fill="white"/>
<path d="M184.282 226.458C184.557 226.729 184.988 226.626 185.251 226.344L193.363 217.639C193.491 217.501 193.51 217.29 193.376 217.157L127.04 151.193C126.985 151.138 126.897 151.144 126.844 151.201L119.208 159.395C118.471 160.186 118.496 161.421 119.265 162.181L184.282 226.458Z" fill="white"/>
<path d="M110.779 132.678L123.187 144.944C123.956 145.704 123.981 146.938 123.244 147.73L113.076 158.641C112.975 158.75 112.806 158.768 112.7 158.663L98.9369 145.057C98.5305 144.655 97.9502 144.49 97.384 144.572C96.7407 144.666 96.0841 144.719 95.4168 144.73C87.0356 144.862 80.1341 138.191 80.0019 129.83C79.8697 121.469 86.5569 114.584 94.9381 114.452C103.319 114.32 110.221 120.991 110.353 129.352C110.363 129.974 110.335 130.587 110.272 131.19C110.214 131.738 110.387 132.29 110.779 132.678Z" fill="white"/>
</svg>
