<svg width="500" height="500" viewBox="0 0 500 500" fill="none" xmlns="http://www.w3.org/2000/svg">
<rect x="127" y="303" width="36" height="94" rx="10" fill="white"/>
<rect x="336" y="303" width="36" height="94" rx="10" fill="white"/>
<path d="M304.138 303H193.371C192.358 303 191.413 303.512 190.859 304.36L170.488 335.57C170.169 336.058 170 336.627 170 337.21V343.806C170 345.863 172.039 347.305 173.991 346.659C230.309 328.056 266.378 329.631 323.092 346.802C325.026 347.388 327 345.95 327 343.929V337.191C327 336.621 326.837 336.062 326.53 335.58L306.668 304.389C306.117 303.524 305.163 303 304.138 303Z" fill="white"/>
<path d="M133.015 115.959C131.021 109.525 135.831 103 142.567 103H359.46C365.881 103 370.638 108.965 369.209 115.225L367.612 122.225C366.573 126.774 362.528 130 357.862 130H144.735C140.352 130 136.48 127.146 135.183 122.959L133.015 115.959Z" fill="white"/>
<path d="M145.452 224.987L150.99 136.573" stroke="white" stroke-width="12"/>
<path d="M354.573 224.987L348.01 136.573" stroke="white" stroke-width="12"/>
<path d="M275 214H322C314.04 196.247 283.339 197.092 275 214Z" fill="white"/>
<path d="M135.412 294.072L129.059 272.052C129.02 271.917 129.01 271.775 129.03 271.635L134.218 234.969C134.313 234.295 135.04 233.911 135.651 234.213L173.144 252.733C173.419 252.869 173.617 253.125 173.68 253.426L183.273 299.536C183.324 299.785 183.28 300.044 183.147 300.26L172.388 317.908C171.862 318.771 170.534 318.401 170.534 317.39V309.667C170.534 302.487 164.107 294.795 155.151 294.795H136.371C135.926 294.795 135.536 294.5 135.412 294.072Z" fill="white"/>
<path d="M369.955 272.027L364.451 294.037C364.34 294.483 363.94 294.795 363.481 294.795H340.772C335.132 294.795 326.928 303.513 326.928 308.128V319.237C326.928 320.263 325.568 320.621 325.059 319.73L312.782 298.242C312.647 298.006 312.614 297.724 312.691 297.463L325.736 253.37C325.816 253.101 326.004 252.879 326.255 252.755L364.048 234.219C364.666 233.917 365.398 234.313 365.481 234.995L369.977 271.663C369.992 271.785 369.985 271.908 369.955 272.027Z" fill="white"/>
<path d="M139.86 223H360.045C361.1 223 361.436 224.42 360.495 224.893L318.712 245.893C318.573 245.964 318.419 246 318.263 246H181.896C181.741 246 181.588 245.964 181.449 245.895L139.413 224.895C138.469 224.423 138.805 223 139.86 223Z" fill="white"/>
<path d="M303.609 294.795H192.876C192.406 294.795 191.999 294.467 191.899 294.008L183.617 255.961C183.481 255.338 183.956 254.749 184.594 254.749H314.326C314.989 254.749 315.468 255.382 315.289 256.02L304.571 294.066C304.45 294.497 304.057 294.795 303.609 294.795Z" fill="white"/>
</svg>
