<svg width="500" height="500" viewBox="0 0 500 500" fill="none" xmlns="http://www.w3.org/2000/svg">
<path fill-rule="evenodd" clip-rule="evenodd" d="M389.191 107C410.003 152.675 396.343 186.744 384.956 206.178L384.484 206.984L246.311 393C246.311 393 144.071 258.063 103.531 202.081C94.4306 189.514 98.9636 162.094 117.806 162.094C140.074 162.094 200.212 162.094 200.212 162.094L227.607 122.696L281.009 201.4L306.073 166.875C306.073 166.875 314.975 175.079 318.22 188.065C321.074 199.489 319.593 207.794 312.51 217.505C297.093 238.641 280.061 261.029 280.061 261.029L227.261 183.212L218.113 196.369H142.273L246.241 335.631L355.854 188.065C363.763 174.32 365.611 166.664 363.327 142.671C361.043 118.679 389.191 107 389.191 107Z" fill="white"/>
</svg>
