<svg width="80" height="80" viewBox="0 0 80 80" fill="none" xmlns="http://www.w3.org/2000/svg">
<g clip-path="url(#clip0_80_19)">
<path d="M56.2822 15C67.3215 15 72.8413 15.9999 76.3271 19.3594C76.4335 19.4619 76.5381 19.5665 76.6406 19.6729C80.0001 23.1587 80 28.6785 80 39.7178C80 50.7571 80 56.2768 76.6406 59.7627C76.5381 59.8691 76.4335 59.9736 76.3271 60.0762C72.8413 63.4356 67.3216 64.4355 56.2822 64.4355H23.7178C12.6784 64.4355 7.15875 63.4356 3.67285 60.0762C3.56645 59.9736 3.46192 59.8691 3.35938 59.7627C-3.33943e-05 56.2768 0 50.7571 0 39.7178C0 28.6785 -5.17565e-05 23.1587 3.35938 19.6729C3.46192 19.5665 3.56645 19.4619 3.67285 19.3594C7.15875 15.9999 12.6785 15 23.7178 15H56.2822ZM34 50.3926L52 40L34 29.6074V50.3926Z" fill="white"/>
</g>
<defs>
<clipPath id="clip0_80_19">
<rect width="80" height="80" fill="white"/>
</clipPath>
</defs>
</svg>
