<svg width="80" height="80" viewBox="0 0 80 80" fill="none" xmlns="http://www.w3.org/2000/svg">
<path d="M6 18.2791H74C75.933 18.2791 77.5 19.8461 77.5 21.7791V49.4724C77.4999 50.4351 77.1032 51.3553 76.4033 52.0164L68.1992 59.7654C67.5495 60.379 66.6895 60.7205 65.7959 60.7205H6C4.06701 60.7205 2.5 59.1535 2.5 57.2205V21.7791C2.5 19.8461 4.067 18.2791 6 18.2791Z" stroke="white" stroke-width="5"/>
<path d="M16.54 47.0117V31.6117H23.58C24.988 31.6117 26.198 31.8391 27.21 32.2937C28.2367 32.7484 29.0287 33.4084 29.586 34.2737C30.1433 35.1244 30.422 36.1364 30.422 37.3097C30.422 38.4684 30.1433 39.4731 29.586 40.3237C29.0287 41.1744 28.2367 41.8344 27.21 42.3037C26.198 42.7584 24.988 42.9857 23.58 42.9857H18.96L20.896 41.0937V47.0117H16.54ZM20.896 41.5557L18.96 39.5537H23.316C24.2253 39.5537 24.9 39.3557 25.34 38.9597C25.7947 38.5637 26.022 38.0137 26.022 37.3097C26.022 36.5911 25.7947 36.0337 25.34 35.6377C24.9 35.2417 24.2253 35.0437 23.316 35.0437H18.96L20.896 33.0417V41.5557ZM32.5459 47.0117V31.6117H39.8279C41.5292 31.6117 43.0252 31.9271 44.3159 32.5577C45.6065 33.1884 46.6112 34.0757 47.3299 35.2197C48.0632 36.3637 48.4299 37.7277 48.4299 39.3117C48.4299 40.8811 48.0632 42.2451 47.3299 43.4037C46.6112 44.5477 45.6065 45.4351 44.3159 46.0657C43.0252 46.6964 41.5292 47.0117 39.8279 47.0117H32.5459ZM36.9019 43.5357H39.6519C40.5319 43.5357 41.2945 43.3744 41.9399 43.0517C42.5999 42.7144 43.1132 42.2304 43.4799 41.5997C43.8465 40.9544 44.0299 40.1917 44.0299 39.3117C44.0299 38.4171 43.8465 37.6544 43.4799 37.0237C43.1132 36.3931 42.5999 35.9164 41.9399 35.5937C41.2945 35.2564 40.5319 35.0877 39.6519 35.0877H36.9019V43.5357ZM54.7696 38.3657H61.8756V41.7317H54.7696V38.3657ZM55.0776 47.0117H50.7216V31.6117H62.7996V34.9777H55.0776V47.0117Z" fill="white"/>
</svg>
